# xmcd CD database file
# Copyright (C) 1993-1998 Ti Kan
# 
# Track frame offsets:
#     150
#     12931
#     33547
#     45819
#     62488
#     78940
#     95043
#     113930
#     131229
#     146459
#     163655
#     181471
# 
# Disc length: 2562 seconds
# 
# Revision: 1
# Processed by: cddbd v1.4b41PL1 Copyright (c) Steve Scherf et al.
# Submitted via: DiscPlay 4.0.4
# 
DISCID=9b0a000c
DTITLE=Joe Diffie - Greatest Hits
DYEAR=1900
DGENRE=
TTITLE0=Third Rock From The Sun
TTITLE1=John Deere Green
TTITLE2=Texas Size Heartache
TTITLE3=Ships That Don't Come In
TTITLE4=Pickup Man
TTITLE5=So Help Me Girl
TTITLE6=Poor Me
TTITLE7=Honky Tonk Attitude
TTITLE8=Home
TTITLE9=Prop Me Up Beside The JukeBox (If I Die)
TTITLE10=Bigger Than The Beatles
TTITLE11=Hurt Me All The Time
EXTD=
EXTT0=
EXTT1=
EXTT2=
EXTT3=
EXTT4=
EXTT5=
EXTT6=
EXTT7=
EXTT8=
EXTT9=
EXTT10=
EXTT11=
PLAYORDER=
